{
  "accessors": [
    {
      "bufferView": 2,
      "componentType": 5126,
      "count": 11077,
      "max": [
        110.78327178955078,
        -4.5159101486206055,
        62.164859771728516
      ],
      "min": [
        -110.78327178955078,
        -235.48504638671875,
        -59.82759094238281
      ],
      "type": "VEC3"
    },
    {
      "bufferView": 2,
      "byteOffset": 132924,
      "componentType": 5126,
      "count": 11077,
      "max": [
        1.0,
        1.0,
        1.0
      ],
      "min": [
        -1.0,
        -1.0,
        -1.0
      ],
      "type": "VEC3"
    },
    {
      "bufferView": 3,
      "componentType": 5126,
      "count": 11077,
      "max": [
        1.0,
        1.0,
        1.0,
        1.0
      ],
      "min": [
        -1.0,
        -1.0,
        -1.0,
        -1.0
      ],
      "type": "VEC4"
    },
    {
      "bufferView": 1,
      "componentType": 5126,
      "count": 11077,
      "max": [
        0.9902499914169312,
        0.9914010167121887
      ],
      "min": [
        0.005714000202715397,
        0.005714000202715397
      ],
      "type": "VEC2"
    },
    {
      "bufferView": 0,
      "componentType": 5125,
      "count": 52218,
      "type": "SCALAR"
    },
    {
      "bufferView": 2,
      "byteOffset": 265848,
      "componentType": 5126,
      "count": 1888,
      "max": [
        30.095155715942383,
        -17.93252944946289,
        62.164859771728516
      ],
      "min": [
        -31.609285354614258,
        -209.08531188964844,
        52.74749755859375
      ],
      "type": "VEC3"
    },
    {
      "bufferView": 2,
      "byteOffset": 288504,
      "componentType": 5126,
      "count": 1888,
      "max": [
        1.0,
        1.0,
        1.0
      ],
      "min": [
        -1.0,
        -1.0,
        -1.0
      ],
      "type": "VEC3"
    },
    {
      "bufferView": 3,
      "byteOffset": 177232,
      "componentType": 5126,
      "count": 1888,
      "max": [
        1.0,
        0.9998639822006226,
        1.0,
        1.0
      ],
      "min": [
        -1.0,
        -0.9989838600158691,
        -1.0,
        -1.0
      ],
      "type": "VEC4"
    },
    {
      "bufferView": 1,
      "byteOffset": 88616,
      "componentType": 5126,
      "count": 1888,
      "max": [
        0.9109219908714294,
        0.784168004989624
      ],
      "min": [
        0.04571399837732315,
        0.005714000202715397
      ],
      "type": "VEC2"
    },
    {
      "bufferView": 0,
      "byteOffset": 208872,
      "componentType": 5125,
      "count": 9078,
      "type": "SCALAR"
    }
  ],
  "asset": {
    "extras": {
      "author": "Katarina Arntsen (https://sketchfab.com/katarina.arntsen)",
      "license": "CC-BY-4.0 (http://creativecommons.org/licenses/by/4.0/)",
      "source": "https://sketchfab.com/3d-models/ferris-weel-cart-db202e3055f34a07b5843f7b4b8b89ed",
      "title": "Ferris Weel Cart"
    },
    "generator": "Sketchfab-12.65.0",
    "version": "2.0"
  },
  "bufferViews": [
    {
      "buffer": 0,
      "byteLength": 245184,
      "name": "floatBufferViews",
      "target": 34963
    },
    {
      "buffer": 0,
      "byteLength": 103720,
      "byteOffset": 245184,
      "byteStride": 8,
      "name": "floatBufferViews",
      "target": 34962
    },
    {
      "buffer": 0,
      "byteLength": 311160,
      "byteOffset": 348904,
      "byteStride": 12,
      "name": "floatBufferViews",
      "target": 34962
    },
    {
      "buffer": 0,
      "byteLength": 207440,
      "byteOffset": 660064,
      "byteStride": 16,
      "name": "floatBufferViews",
      "target": 34962
    }
  ],
  "buffers": [
    {
      "byteLength": 867504,
      "uri": "scene.bin"
    }
  ],
  "images": [
    {
      "uri": "textures/Cart_LPinitialShadingGroup_baseColor.png"
    },
    {
      "uri": "textures/Cart_LPinitialShadingGroup_metallicRoughness.png"
    },
    {
      "uri": "textures/Cart_LPinitialShadingGroup_normal.png"
    }
  ],
  "materials": [
    {
      "doubleSided": true,
      "name": "Cart_LPinitialShadingGroup",
      "normalTexture": {
        "index": 2
      },
      "pbrMetallicRoughness": {
        "baseColorTexture": {
          "index": 0
        },
        "metallicRoughnessTexture": {
          "index": 1
        }
      }
    }
  ],
  "meshes": [
    {
      "name": "Object_0",
      "primitives": [
        {
          "attributes": {
            "NORMAL": 1,
            "POSITION": 0,
            "TANGENT": 2,
            "TEXCOORD_0": 3
          },
          "indices": 4,
          "material": 0,
          "mode": 4
        }
      ]
    },
    {
      "name": "Object_1",
      "primitives": [
        {
          "attributes": {
            "NORMAL": 6,
            "POSITION": 5,
            "TANGENT": 7,
            "TEXCOORD_0": 8
          },
          "indices": 9,
          "material": 0,
          "mode": 4
        }
      ]
    }
  ],
  "nodes": [
    {
      "children": [
        1
      ],
      "matrix": [
        -1.0,
        -5.550973774502711e-16,
        2.718380984738653e-16,
        0.0,
        5.551060595379803e-16,
        -1.0,
        3.180053317897169e-05,
        0.0,
        2.7182044313087106e-16,
        3.180053317897169e-05,
        1.0,
        0.0,
        0.00052642822265625,
        -118.83187103271487,
        118.83564758300778,
        1.0
      ],
      "name": "Sketchfab_model"
    },
    {
      "children": [
        2,
        3
      ],
      "name": "Cart_LP_Final.obj.cleaner.materialmerger.gles"
    },
    {
      "mesh": 0,
      "name": "Object_2"
    },
    {
      "mesh": 1,
      "name": "Object_3"
    }
  ],
  "samplers": [
    {
      "magFilter": 9729,
      "minFilter": 9987,
      "wrapS": 10497,
      "wrapT": 10497
    }
  ],
  "scene": 0,
  "scenes": [
    {
      "name": "Sketchfab_Scene",
      "nodes": [
        0
      ]
    }
  ],
  "textures": [
    {
      "sampler": 0,
      "source": 0
    },
    {
      "sampler": 0,
      "source": 1
    },
    {
      "sampler": 0,
      "source": 2
    }
  ]
}
